<mxfile host="app.diagrams.net" modified="2024-03-29T08:30:20.862Z" agent="Mozilla/5.0 (Windows NT 10.0; Win64; x64) AppleWebKit/537.36 (KHTML, like Gecko) Chrome/123.0.0.0 Safari/537.36" etag="HOEHcD3rr8u0ui5Ukxb8" version="24.0.8" type="github">
  <diagram name="หน้า-1" id="NC8CfdXMqsGIgtxX-ItK">
    <mxGraphModel dx="4431" dy="2789" grid="1" gridSize="10" guides="1" tooltips="1" connect="1" arrows="1" fold="1" page="1" pageScale="1" pageWidth="827" pageHeight="1169" math="0" shadow="0">
      <root>
        <mxCell id="0" />
        <mxCell id="1" parent="0" />
        <mxCell id="oNc5xV1l3uZRWg-EU25s-1" value="Q_Queue" style="rounded=0;whiteSpace=wrap;html=1;" parent="1" vertex="1">
          <mxGeometry x="-470" y="-750" width="120" height="60" as="geometry" />
        </mxCell>
        <mxCell id="oNc5xV1l3uZRWg-EU25s-2" value="T_Table" style="rounded=0;whiteSpace=wrap;html=1;" parent="1" vertex="1">
          <mxGeometry x="44" y="-750" width="120" height="60" as="geometry" />
        </mxCell>
        <mxCell id="oNc5xV1l3uZRWg-EU25s-3" value="Menu_List" style="rounded=0;whiteSpace=wrap;html=1;" parent="1" vertex="1">
          <mxGeometry x="250" y="-440" width="120" height="60" as="geometry" />
        </mxCell>
        <mxCell id="oNc5xV1l3uZRWg-EU25s-4" value="Purchase_Order_Menu" style="rounded=0;whiteSpace=wrap;html=1;" parent="1" vertex="1">
          <mxGeometry x="270" y="-600" width="150" height="60" as="geometry" />
        </mxCell>
        <mxCell id="oNc5xV1l3uZRWg-EU25s-5" value="Food_List" style="rounded=0;whiteSpace=wrap;html=1;" parent="1" vertex="1">
          <mxGeometry x="270" y="-755" width="120" height="60" as="geometry" />
        </mxCell>
        <mxCell id="oNc5xV1l3uZRWg-EU25s-6" value="Material_ use _menu&amp;nbsp;" style="rounded=0;whiteSpace=wrap;html=1;" parent="1" vertex="1">
          <mxGeometry x="250" y="-290" width="120" height="60" as="geometry" />
        </mxCell>
        <mxCell id="oNc5xV1l3uZRWg-EU25s-7" value="M_Material" style="rounded=0;whiteSpace=wrap;html=1;" parent="1" vertex="1">
          <mxGeometry x="10" y="-290" width="120" height="60" as="geometry" />
        </mxCell>
        <mxCell id="oNc5xV1l3uZRWg-EU25s-8" value="Menu_ Type" style="rounded=0;whiteSpace=wrap;html=1;" parent="1" vertex="1">
          <mxGeometry x="257" y="-970" width="120" height="60" as="geometry" />
        </mxCell>
        <mxCell id="oNc5xV1l3uZRWg-EU25s-9" value="&amp;nbsp;Menu_Group&amp;nbsp;" style="rounded=0;whiteSpace=wrap;html=1;" parent="1" vertex="1">
          <mxGeometry x="17" y="-970" width="120" height="60" as="geometry" />
        </mxCell>
        <mxCell id="oNc5xV1l3uZRWg-EU25s-10" value="M_Unit_Name" style="rounded=0;whiteSpace=wrap;html=1;" parent="1" vertex="1">
          <mxGeometry x="10" y="-130" width="120" height="60" as="geometry" />
        </mxCell>
        <mxCell id="oNc5xV1l3uZRWg-EU25s-11" value="Zone" style="rounded=0;whiteSpace=wrap;html=1;" parent="1" vertex="1">
          <mxGeometry x="-200" y="-750" width="120" height="60" as="geometry" />
        </mxCell>
        <mxCell id="oNc5xV1l3uZRWg-EU25s-12" value="Order_Store" style="rounded=0;whiteSpace=wrap;html=1;" parent="1" vertex="1">
          <mxGeometry x="-230" y="-290" width="120" height="60" as="geometry" />
        </mxCell>
        <mxCell id="oNc5xV1l3uZRWg-EU25s-13" value="&amp;nbsp;Purchase_Order_Store" style="rounded=0;whiteSpace=wrap;html=1;" parent="1" vertex="1">
          <mxGeometry x="-250" y="-130" width="140" height="60" as="geometry" />
        </mxCell>
        <mxCell id="oNc5xV1l3uZRWg-EU25s-14" value="Supplier" style="rounded=0;whiteSpace=wrap;html=1;" parent="1" vertex="1">
          <mxGeometry x="-240" y="20" width="120" height="60" as="geometry" />
        </mxCell>
        <mxCell id="oNc5xV1l3uZRWg-EU25s-18" value="" style="rhombus;whiteSpace=wrap;html=1;" parent="1" vertex="1">
          <mxGeometry x="-300" y="-735" width="30" height="30" as="geometry" />
        </mxCell>
        <mxCell id="oNc5xV1l3uZRWg-EU25s-20" value="" style="endArrow=none;html=1;rounded=0;" parent="1" source="oNc5xV1l3uZRWg-EU25s-1" edge="1">
          <mxGeometry width="50" height="50" relative="1" as="geometry">
            <mxPoint x="-350" y="-670" as="sourcePoint" />
            <mxPoint x="-300" y="-720" as="targetPoint" />
          </mxGeometry>
        </mxCell>
        <mxCell id="oNc5xV1l3uZRWg-EU25s-21" value="" style="endArrow=none;html=1;rounded=0;entryX=0;entryY=0.5;entryDx=0;entryDy=0;" parent="1" target="oNc5xV1l3uZRWg-EU25s-11" edge="1">
          <mxGeometry width="50" height="50" relative="1" as="geometry">
            <mxPoint x="-270" y="-720.24" as="sourcePoint" />
            <mxPoint x="-220" y="-720.24" as="targetPoint" />
          </mxGeometry>
        </mxCell>
        <mxCell id="oNc5xV1l3uZRWg-EU25s-22" value="" style="rhombus;whiteSpace=wrap;html=1;" parent="1" vertex="1">
          <mxGeometry x="-40" y="-735" width="30" height="30" as="geometry" />
        </mxCell>
        <mxCell id="oNc5xV1l3uZRWg-EU25s-23" value="" style="endArrow=none;html=1;rounded=0;" parent="1" edge="1">
          <mxGeometry width="50" height="50" relative="1" as="geometry">
            <mxPoint x="-80" y="-720.24" as="sourcePoint" />
            <mxPoint x="-40" y="-720" as="targetPoint" />
          </mxGeometry>
        </mxCell>
        <mxCell id="oNc5xV1l3uZRWg-EU25s-24" value="" style="endArrow=none;html=1;rounded=0;entryX=0;entryY=0.5;entryDx=0;entryDy=0;" parent="1" target="oNc5xV1l3uZRWg-EU25s-2" edge="1">
          <mxGeometry width="50" height="50" relative="1" as="geometry">
            <mxPoint x="-10" y="-720.24" as="sourcePoint" />
            <mxPoint x="40" y="-720.24" as="targetPoint" />
          </mxGeometry>
        </mxCell>
        <mxCell id="oNc5xV1l3uZRWg-EU25s-25" value="" style="rhombus;whiteSpace=wrap;html=1;" parent="1" vertex="1">
          <mxGeometry x="190" y="-735" width="30" height="30" as="geometry" />
        </mxCell>
        <mxCell id="oNc5xV1l3uZRWg-EU25s-26" value="" style="endArrow=none;html=1;rounded=0;exitX=1;exitY=0.5;exitDx=0;exitDy=0;" parent="1" source="oNc5xV1l3uZRWg-EU25s-2" edge="1">
          <mxGeometry width="50" height="50" relative="1" as="geometry">
            <mxPoint x="170" y="-720" as="sourcePoint" />
            <mxPoint x="190" y="-720.24" as="targetPoint" />
          </mxGeometry>
        </mxCell>
        <mxCell id="oNc5xV1l3uZRWg-EU25s-30" value="" style="endArrow=none;html=1;rounded=0;exitX=0.4;exitY=0.003;exitDx=0;exitDy=0;exitPerimeter=0;" parent="1" source="oNc5xV1l3uZRWg-EU25s-4" target="oNc5xV1l3uZRWg-EU25s-36" edge="1">
          <mxGeometry width="50" height="50" relative="1" as="geometry">
            <mxPoint x="799.9200000000001" y="-580" as="sourcePoint" />
            <mxPoint x="799.9200000000001" y="-600" as="targetPoint" />
          </mxGeometry>
        </mxCell>
        <mxCell id="oNc5xV1l3uZRWg-EU25s-31" value="" style="rhombus;whiteSpace=wrap;html=1;" parent="1" vertex="1">
          <mxGeometry x="315" y="-825" width="30" height="30" as="geometry" />
        </mxCell>
        <mxCell id="oNc5xV1l3uZRWg-EU25s-33" value="" style="endArrow=none;html=1;rounded=0;exitX=0.4;exitY=0.003;exitDx=0;exitDy=0;exitPerimeter=0;" parent="1" edge="1">
          <mxGeometry width="50" height="50" relative="1" as="geometry">
            <mxPoint x="329.7900000000002" y="-665" as="sourcePoint" />
            <mxPoint x="329.71000000000004" y="-695" as="targetPoint" />
          </mxGeometry>
        </mxCell>
        <mxCell id="oNc5xV1l3uZRWg-EU25s-34" value="" style="endArrow=none;html=1;rounded=0;exitX=0.5;exitY=0;exitDx=0;exitDy=0;" parent="1" source="oNc5xV1l3uZRWg-EU25s-5" edge="1">
          <mxGeometry width="50" height="50" relative="1" as="geometry">
            <mxPoint x="330.01" y="-765" as="sourcePoint" />
            <mxPoint x="329.92999999999995" y="-795" as="targetPoint" />
          </mxGeometry>
        </mxCell>
        <mxCell id="oNc5xV1l3uZRWg-EU25s-36" value="" style="rhombus;whiteSpace=wrap;html=1;" parent="1" vertex="1">
          <mxGeometry x="315" y="-670" width="30" height="30" as="geometry" />
        </mxCell>
        <mxCell id="oNc5xV1l3uZRWg-EU25s-37" value="" style="rhombus;whiteSpace=wrap;html=1;" parent="1" vertex="1">
          <mxGeometry x="177" y="-950" width="30" height="30" as="geometry" />
        </mxCell>
        <mxCell id="oNc5xV1l3uZRWg-EU25s-38" value="" style="rhombus;whiteSpace=wrap;html=1;" parent="1" vertex="1">
          <mxGeometry x="170" y="-270" width="30" height="30" as="geometry" />
        </mxCell>
        <mxCell id="oNc5xV1l3uZRWg-EU25s-39" value="" style="rhombus;whiteSpace=wrap;html=1;" parent="1" vertex="1">
          <mxGeometry x="-70" y="-275" width="30" height="30" as="geometry" />
        </mxCell>
        <mxCell id="oNc5xV1l3uZRWg-EU25s-40" value="" style="rhombus;whiteSpace=wrap;html=1;" parent="1" vertex="1">
          <mxGeometry x="55" y="-190" width="30" height="30" as="geometry" />
        </mxCell>
        <mxCell id="oNc5xV1l3uZRWg-EU25s-41" value="" style="rhombus;whiteSpace=wrap;html=1;" parent="1" vertex="1">
          <mxGeometry x="-185" y="-190" width="30" height="30" as="geometry" />
        </mxCell>
        <mxCell id="oNc5xV1l3uZRWg-EU25s-42" value="" style="rhombus;whiteSpace=wrap;html=1;" parent="1" vertex="1">
          <mxGeometry x="-195" y="-40" width="30" height="30" as="geometry" />
        </mxCell>
        <mxCell id="oNc5xV1l3uZRWg-EU25s-45" value="" style="endArrow=none;html=1;rounded=0;exitX=0.5;exitY=0;exitDx=0;exitDy=0;" parent="1" edge="1">
          <mxGeometry width="50" height="50" relative="1" as="geometry">
            <mxPoint x="69.92999999999995" y="-190" as="sourcePoint" />
            <mxPoint x="69.75999999999988" y="-230" as="targetPoint" />
          </mxGeometry>
        </mxCell>
        <mxCell id="oNc5xV1l3uZRWg-EU25s-46" value="" style="endArrow=none;html=1;rounded=0;" parent="1" edge="1">
          <mxGeometry width="50" height="50" relative="1" as="geometry">
            <mxPoint x="70" y="-130" as="sourcePoint" />
            <mxPoint x="69.89999999999986" y="-160" as="targetPoint" />
          </mxGeometry>
        </mxCell>
        <mxCell id="oNc5xV1l3uZRWg-EU25s-47" value="" style="endArrow=none;html=1;rounded=0;exitX=0.5;exitY=0;exitDx=0;exitDy=0;" parent="1" edge="1">
          <mxGeometry width="50" height="50" relative="1" as="geometry">
            <mxPoint x="-170.00000000000006" y="-190" as="sourcePoint" />
            <mxPoint x="-170.17000000000013" y="-230" as="targetPoint" />
          </mxGeometry>
        </mxCell>
        <mxCell id="oNc5xV1l3uZRWg-EU25s-48" value="" style="endArrow=none;html=1;rounded=0;" parent="1" edge="1">
          <mxGeometry width="50" height="50" relative="1" as="geometry">
            <mxPoint x="-170" y="-130" as="sourcePoint" />
            <mxPoint x="-170.17000000000013" y="-160" as="targetPoint" />
          </mxGeometry>
        </mxCell>
        <mxCell id="oNc5xV1l3uZRWg-EU25s-49" value="" style="endArrow=none;html=1;rounded=0;" parent="1" edge="1">
          <mxGeometry width="50" height="50" relative="1" as="geometry">
            <mxPoint x="-180" y="-40" as="sourcePoint" />
            <mxPoint x="-180.20000000000013" y="-70" as="targetPoint" />
          </mxGeometry>
        </mxCell>
        <mxCell id="oNc5xV1l3uZRWg-EU25s-50" value="" style="endArrow=none;html=1;rounded=0;" parent="1" edge="1">
          <mxGeometry width="50" height="50" relative="1" as="geometry">
            <mxPoint x="-179.97" y="20" as="sourcePoint" />
            <mxPoint x="-180.17000000000013" y="-10" as="targetPoint" />
          </mxGeometry>
        </mxCell>
        <mxCell id="oNc5xV1l3uZRWg-EU25s-51" value="" style="endArrow=none;html=1;rounded=0;entryX=-0.003;entryY=0.578;entryDx=0;entryDy=0;entryPerimeter=0;" parent="1" target="oNc5xV1l3uZRWg-EU25s-5" edge="1">
          <mxGeometry width="50" height="50" relative="1" as="geometry">
            <mxPoint x="220" y="-720.12" as="sourcePoint" />
            <mxPoint x="274" y="-719.88" as="targetPoint" />
          </mxGeometry>
        </mxCell>
        <mxCell id="oNc5xV1l3uZRWg-EU25s-53" value="" style="endArrow=none;html=1;rounded=0;entryX=0;entryY=0.582;entryDx=0;entryDy=0;entryPerimeter=0;" parent="1" target="oNc5xV1l3uZRWg-EU25s-8" edge="1">
          <mxGeometry width="50" height="50" relative="1" as="geometry">
            <mxPoint x="207" y="-935.1" as="sourcePoint" />
            <mxPoint x="247" y="-935" as="targetPoint" />
          </mxGeometry>
        </mxCell>
        <mxCell id="oNc5xV1l3uZRWg-EU25s-54" value="" style="endArrow=none;html=1;rounded=0;" parent="1" edge="1">
          <mxGeometry width="50" height="50" relative="1" as="geometry">
            <mxPoint x="137" y="-935.1" as="sourcePoint" />
            <mxPoint x="177" y="-935" as="targetPoint" />
          </mxGeometry>
        </mxCell>
        <mxCell id="oNc5xV1l3uZRWg-EU25s-55" value="" style="endArrow=none;html=1;rounded=0;entryX=0;entryY=0.582;entryDx=0;entryDy=0;entryPerimeter=0;" parent="1" edge="1">
          <mxGeometry width="50" height="50" relative="1" as="geometry">
            <mxPoint x="-40" y="-260.28999999999996" as="sourcePoint" />
            <mxPoint x="10" y="-260.19000000000005" as="targetPoint" />
          </mxGeometry>
        </mxCell>
        <mxCell id="oNc5xV1l3uZRWg-EU25s-56" value="" style="endArrow=none;html=1;rounded=0;entryX=0;entryY=0.582;entryDx=0;entryDy=0;entryPerimeter=0;" parent="1" edge="1">
          <mxGeometry width="50" height="50" relative="1" as="geometry">
            <mxPoint x="-110" y="-260" as="sourcePoint" />
            <mxPoint x="-70" y="-260" as="targetPoint" />
          </mxGeometry>
        </mxCell>
        <mxCell id="oNc5xV1l3uZRWg-EU25s-57" value="" style="endArrow=none;html=1;rounded=0;" parent="1" edge="1">
          <mxGeometry width="50" height="50" relative="1" as="geometry">
            <mxPoint x="130" y="-255.0999999999999" as="sourcePoint" />
            <mxPoint x="170" y="-255" as="targetPoint" />
          </mxGeometry>
        </mxCell>
        <mxCell id="oNc5xV1l3uZRWg-EU25s-58" value="" style="endArrow=none;html=1;rounded=0;entryX=-0.006;entryY=0.578;entryDx=0;entryDy=0;entryPerimeter=0;" parent="1" target="oNc5xV1l3uZRWg-EU25s-6" edge="1">
          <mxGeometry width="50" height="50" relative="1" as="geometry">
            <mxPoint x="200" y="-255.0999999999999" as="sourcePoint" />
            <mxPoint x="240" y="-255" as="targetPoint" />
          </mxGeometry>
        </mxCell>
        <mxCell id="oNc5xV1l3uZRWg-EU25s-60" value="Material_&lt;div&gt;name&lt;/div&gt;" style="ellipse;whiteSpace=wrap;html=1;" parent="1" vertex="1">
          <mxGeometry x="54" y="-370" width="76" height="50" as="geometry" />
        </mxCell>
        <mxCell id="oNc5xV1l3uZRWg-EU25s-62" value="&lt;u&gt;Material_ID&lt;/u&gt;" style="ellipse;whiteSpace=wrap;html=1;" parent="1" vertex="1">
          <mxGeometry x="-40" y="-370" width="76" height="50" as="geometry" />
        </mxCell>
        <mxCell id="oNc5xV1l3uZRWg-EU25s-63" value="Max_Stock" style="ellipse;whiteSpace=wrap;html=1;" parent="1" vertex="1">
          <mxGeometry x="147" y="-360" width="76" height="50" as="geometry" />
        </mxCell>
        <mxCell id="oNc5xV1l3uZRWg-EU25s-64" value="N_Stock" style="ellipse;whiteSpace=wrap;html=1;" parent="1" vertex="1">
          <mxGeometry x="126" y="-220" width="76" height="50" as="geometry" />
        </mxCell>
        <mxCell id="oNc5xV1l3uZRWg-EU25s-66" value="&lt;u&gt;Unit_Code&lt;/u&gt;" style="ellipse;whiteSpace=wrap;html=1;" parent="1" vertex="1">
          <mxGeometry x="-22" y="-40" width="76" height="50" as="geometry" />
        </mxCell>
        <mxCell id="oNc5xV1l3uZRWg-EU25s-67" value="Unit_Name" style="ellipse;whiteSpace=wrap;html=1;" parent="1" vertex="1">
          <mxGeometry x="104" y="-40" width="76" height="50" as="geometry" />
        </mxCell>
        <mxCell id="oNc5xV1l3uZRWg-EU25s-68" value="&lt;u&gt;Supplier_ID&lt;/u&gt;" style="ellipse;whiteSpace=wrap;html=1;" parent="1" vertex="1">
          <mxGeometry x="-290" y="110" width="76" height="50" as="geometry" />
        </mxCell>
        <mxCell id="oNc5xV1l3uZRWg-EU25s-69" value="Supplier_Name" style="ellipse;whiteSpace=wrap;html=1;" parent="1" vertex="1">
          <mxGeometry x="-155" y="110" width="85" height="50" as="geometry" />
        </mxCell>
        <mxCell id="oNc5xV1l3uZRWg-EU25s-70" value="&lt;u&gt;ID_Order_Store&lt;/u&gt;" style="ellipse;whiteSpace=wrap;html=1;" parent="1" vertex="1">
          <mxGeometry x="-420" y="-170" width="96" height="50" as="geometry" />
        </mxCell>
        <mxCell id="oNc5xV1l3uZRWg-EU25s-71" value="Date_Store" style="ellipse;whiteSpace=wrap;html=1;" parent="1" vertex="1">
          <mxGeometry x="-420" y="-100" width="76" height="50" as="geometry" />
        </mxCell>
        <mxCell id="oNc5xV1l3uZRWg-EU25s-72" value="Status_Store" style="ellipse;whiteSpace=wrap;html=1;" parent="1" vertex="1">
          <mxGeometry x="-350" y="-50" width="76" height="50" as="geometry" />
        </mxCell>
        <mxCell id="oNc5xV1l3uZRWg-EU25s-73" value="&lt;u&gt;M_ID_Order_Store&lt;/u&gt;" style="ellipse;whiteSpace=wrap;html=1;" parent="1" vertex="1">
          <mxGeometry x="-272" y="-380" width="120" height="50" as="geometry" />
        </mxCell>
        <mxCell id="oNc5xV1l3uZRWg-EU25s-74" value="&lt;u&gt;Store_No&lt;/u&gt;" style="ellipse;whiteSpace=wrap;html=1;" parent="1" vertex="1">
          <mxGeometry x="-386" y="-340" width="96" height="50" as="geometry" />
        </mxCell>
        <mxCell id="oNc5xV1l3uZRWg-EU25s-75" value="Quantity_buy" style="ellipse;whiteSpace=wrap;html=1;" parent="1" vertex="1">
          <mxGeometry x="-410" y="-280" width="96" height="50" as="geometry" />
        </mxCell>
        <mxCell id="oNc5xV1l3uZRWg-EU25s-76" value="Quantity_receive" style="ellipse;whiteSpace=wrap;html=1;" parent="1" vertex="1">
          <mxGeometry x="-344" y="-220" width="96" height="50" as="geometry" />
        </mxCell>
        <mxCell id="oNc5xV1l3uZRWg-EU25s-77" value="&lt;u&gt;Menu_ID&lt;/u&gt;" style="ellipse;whiteSpace=wrap;html=1;" parent="1" vertex="1">
          <mxGeometry x="-70" y="-1040" width="76" height="50" as="geometry" />
        </mxCell>
        <mxCell id="oNc5xV1l3uZRWg-EU25s-78" value="Menu_name" style="ellipse;whiteSpace=wrap;html=1;" parent="1" vertex="1">
          <mxGeometry x="71" y="-1060" width="76" height="50" as="geometry" />
        </mxCell>
        <mxCell id="oNc5xV1l3uZRWg-EU25s-79" value="Menu_type_&lt;div&gt;name&lt;/div&gt;" style="ellipse;whiteSpace=wrap;html=1;" parent="1" vertex="1">
          <mxGeometry x="356" y="-1060" width="76" height="50" as="geometry" />
        </mxCell>
        <mxCell id="oNc5xV1l3uZRWg-EU25s-81" value="&lt;u&gt;Menu_type_ID&lt;/u&gt;" style="ellipse;whiteSpace=wrap;html=1;" parent="1" vertex="1">
          <mxGeometry x="202" y="-1060" width="86" height="50" as="geometry" />
        </mxCell>
        <mxCell id="oNc5xV1l3uZRWg-EU25s-82" value="&lt;u&gt;Order_Number&lt;/u&gt;" style="ellipse;whiteSpace=wrap;html=1;" parent="1" vertex="1">
          <mxGeometry x="207" y="-820" width="93" height="50" as="geometry" />
        </mxCell>
        <mxCell id="oNc5xV1l3uZRWg-EU25s-83" value="Take_Home" style="ellipse;whiteSpace=wrap;html=1;" parent="1" vertex="1">
          <mxGeometry x="420" y="-780" width="76" height="50" as="geometry" />
        </mxCell>
        <mxCell id="oNc5xV1l3uZRWg-EU25s-84" value="Menu_amount" style="ellipse;whiteSpace=wrap;html=1;" parent="1" vertex="1">
          <mxGeometry x="394" y="-845" width="86" height="50" as="geometry" />
        </mxCell>
        <mxCell id="oNc5xV1l3uZRWg-EU25s-85" value="&lt;u&gt;Use_ID&lt;/u&gt;" style="ellipse;whiteSpace=wrap;html=1;" parent="1" vertex="1">
          <mxGeometry x="414" y="-300" width="76" height="50" as="geometry" />
        </mxCell>
        <mxCell id="oNc5xV1l3uZRWg-EU25s-86" value="List_amount" style="ellipse;whiteSpace=wrap;html=1;" parent="1" vertex="1">
          <mxGeometry x="380" y="-220" width="76" height="50" as="geometry" />
        </mxCell>
        <mxCell id="oNc5xV1l3uZRWg-EU25s-87" value="Queue_Status" style="ellipse;whiteSpace=wrap;html=1;" parent="1" vertex="1">
          <mxGeometry x="-590" y="-660" width="86" height="50" as="geometry" />
        </mxCell>
        <mxCell id="oNc5xV1l3uZRWg-EU25s-88" value="Date_Queue" style="ellipse;whiteSpace=wrap;html=1;" parent="1" vertex="1">
          <mxGeometry x="-590" y="-750" width="76" height="50" as="geometry" />
        </mxCell>
        <mxCell id="oNc5xV1l3uZRWg-EU25s-89" value="&lt;u&gt;Queue_NO&lt;/u&gt;" style="ellipse;whiteSpace=wrap;html=1;" parent="1" vertex="1">
          <mxGeometry x="-550" y="-840" width="76" height="50" as="geometry" />
        </mxCell>
        <mxCell id="oNc5xV1l3uZRWg-EU25s-90" value="&lt;u&gt;Name_Zone&lt;/u&gt;" style="ellipse;whiteSpace=wrap;html=1;" parent="1" vertex="1">
          <mxGeometry x="-250" y="-830" width="76" height="50" as="geometry" />
        </mxCell>
        <mxCell id="oNc5xV1l3uZRWg-EU25s-91" value="Zone_ID" style="ellipse;whiteSpace=wrap;html=1;" parent="1" vertex="1">
          <mxGeometry x="-140" y="-840" width="86" height="50" as="geometry" />
        </mxCell>
        <mxCell id="oNc5xV1l3uZRWg-EU25s-92" value="Table_NO" style="ellipse;whiteSpace=wrap;html=1;" parent="1" vertex="1">
          <mxGeometry y="-840" width="76" height="50" as="geometry" />
        </mxCell>
        <mxCell id="oNc5xV1l3uZRWg-EU25s-93" value="&lt;u&gt;Table_ID&lt;/u&gt;" style="ellipse;whiteSpace=wrap;html=1;" parent="1" vertex="1">
          <mxGeometry x="104" y="-840" width="76" height="50" as="geometry" />
        </mxCell>
        <mxCell id="oNc5xV1l3uZRWg-EU25s-94" value="Bill_Status" style="ellipse;whiteSpace=wrap;html=1;" parent="1" vertex="1">
          <mxGeometry x="420" y="-660" width="76" height="50" as="geometry" />
        </mxCell>
        <mxCell id="oNc5xV1l3uZRWg-EU25s-95" value="&lt;u&gt;Purchase_Order&lt;/u&gt;" style="ellipse;whiteSpace=wrap;html=1;" parent="1" vertex="1">
          <mxGeometry x="147" y="-660" width="96" height="50" as="geometry" />
        </mxCell>
        <mxCell id="oNc5xV1l3uZRWg-EU25s-96" value="&lt;u&gt;Food_ID&lt;/u&gt;" style="ellipse;whiteSpace=wrap;html=1;" parent="1" vertex="1">
          <mxGeometry x="134" y="-480" width="86" height="50" as="geometry" />
        </mxCell>
        <mxCell id="oNc5xV1l3uZRWg-EU25s-97" value="Food_price" style="ellipse;whiteSpace=wrap;html=1;" parent="1" vertex="1">
          <mxGeometry x="400" y="-500" width="90" height="50" as="geometry" />
        </mxCell>
        <mxCell id="oNc5xV1l3uZRWg-EU25s-98" value="Food_Name" style="ellipse;whiteSpace=wrap;html=1;" parent="1" vertex="1">
          <mxGeometry x="407" y="-410" width="76" height="50" as="geometry" />
        </mxCell>
        <mxCell id="oNc5xV1l3uZRWg-EU25s-100" value="" style="endArrow=none;html=1;rounded=0;exitX=0.5;exitY=0;exitDx=0;exitDy=0;entryX=0.605;entryY=1.022;entryDx=0;entryDy=0;entryPerimeter=0;" parent="1" target="oNc5xV1l3uZRWg-EU25s-8" edge="1">
          <mxGeometry width="50" height="50" relative="1" as="geometry">
            <mxPoint x="329.83000000000004" y="-825" as="sourcePoint" />
            <mxPoint x="329.65999999999997" y="-865" as="targetPoint" />
          </mxGeometry>
        </mxCell>
        <mxCell id="oNc5xV1l3uZRWg-EU25s-101" value="" style="rhombus;whiteSpace=wrap;html=1;" parent="1" vertex="1">
          <mxGeometry x="295" y="-500" width="30" height="30" as="geometry" />
        </mxCell>
        <mxCell id="oNc5xV1l3uZRWg-EU25s-102" value="" style="endArrow=none;html=1;rounded=0;" parent="1" edge="1">
          <mxGeometry width="50" height="50" relative="1" as="geometry">
            <mxPoint x="310" y="-500" as="sourcePoint" />
            <mxPoint x="310" y="-540" as="targetPoint" />
          </mxGeometry>
        </mxCell>
        <mxCell id="oNc5xV1l3uZRWg-EU25s-103" value="" style="endArrow=none;html=1;rounded=0;entryX=0.5;entryY=1;entryDx=0;entryDy=0;" parent="1" target="oNc5xV1l3uZRWg-EU25s-101" edge="1">
          <mxGeometry width="50" height="50" relative="1" as="geometry">
            <mxPoint x="309.78" y="-440" as="sourcePoint" />
            <mxPoint x="309.65999999999997" y="-460" as="targetPoint" />
          </mxGeometry>
        </mxCell>
        <mxCell id="oNc5xV1l3uZRWg-EU25s-104" value="" style="rhombus;whiteSpace=wrap;html=1;" parent="1" vertex="1">
          <mxGeometry x="310" y="-350" width="30" height="30" as="geometry" />
        </mxCell>
        <mxCell id="oNc5xV1l3uZRWg-EU25s-105" value="" style="endArrow=none;html=1;rounded=0;exitX=0.5;exitY=0;exitDx=0;exitDy=0;" parent="1" source="oNc5xV1l3uZRWg-EU25s-104" edge="1">
          <mxGeometry width="50" height="50" relative="1" as="geometry">
            <mxPoint x="325.01" y="-360" as="sourcePoint" />
            <mxPoint x="324.89" y="-380" as="targetPoint" />
          </mxGeometry>
        </mxCell>
        <mxCell id="oNc5xV1l3uZRWg-EU25s-106" value="" style="endArrow=none;html=1;rounded=0;exitX=0.5;exitY=0;exitDx=0;exitDy=0;" parent="1" edge="1">
          <mxGeometry width="50" height="50" relative="1" as="geometry">
            <mxPoint x="325.01" y="-290" as="sourcePoint" />
            <mxPoint x="324.9" y="-320" as="targetPoint" />
          </mxGeometry>
        </mxCell>
        <mxCell id="BAjjqtdPfAsm28QJEfqi-2" value="" style="endArrow=none;html=1;rounded=0;exitX=0.87;exitY=0.007;exitDx=0;exitDy=0;exitPerimeter=0;entryX=0.319;entryY=0.956;entryDx=0;entryDy=0;entryPerimeter=0;" parent="1" source="oNc5xV1l3uZRWg-EU25s-8" target="oNc5xV1l3uZRWg-EU25s-79" edge="1">
          <mxGeometry width="50" height="50" relative="1" as="geometry">
            <mxPoint x="330" y="-960" as="sourcePoint" />
            <mxPoint x="380" y="-1010" as="targetPoint" />
          </mxGeometry>
        </mxCell>
        <mxCell id="BAjjqtdPfAsm28QJEfqi-3" value="" style="endArrow=none;html=1;rounded=0;exitX=0.097;exitY=-0.006;exitDx=0;exitDy=0;exitPerimeter=0;entryX=0.319;entryY=0.956;entryDx=0;entryDy=0;entryPerimeter=0;" parent="1" source="oNc5xV1l3uZRWg-EU25s-8" edge="1">
          <mxGeometry width="50" height="50" relative="1" as="geometry">
            <mxPoint x="243" y="-970" as="sourcePoint" />
            <mxPoint x="262" y="-1012" as="targetPoint" />
          </mxGeometry>
        </mxCell>
        <mxCell id="BAjjqtdPfAsm28QJEfqi-4" value="" style="endArrow=none;html=1;rounded=0;exitX=0.209;exitY=0.003;exitDx=0;exitDy=0;exitPerimeter=0;entryX=1;entryY=1;entryDx=0;entryDy=0;" parent="1" source="oNc5xV1l3uZRWg-EU25s-5" target="oNc5xV1l3uZRWg-EU25s-82" edge="1">
          <mxGeometry width="50" height="50" relative="1" as="geometry">
            <mxPoint x="220" y="-730" as="sourcePoint" />
            <mxPoint x="270" y="-780" as="targetPoint" />
          </mxGeometry>
        </mxCell>
        <mxCell id="BAjjqtdPfAsm28QJEfqi-5" value="" style="endArrow=none;html=1;rounded=0;exitX=0.9;exitY=0.009;exitDx=0;exitDy=0;exitPerimeter=0;" parent="1" source="oNc5xV1l3uZRWg-EU25s-5" edge="1">
          <mxGeometry width="50" height="50" relative="1" as="geometry">
            <mxPoint x="360" y="-750" as="sourcePoint" />
            <mxPoint x="410" y="-800" as="targetPoint" />
          </mxGeometry>
        </mxCell>
        <mxCell id="BAjjqtdPfAsm28QJEfqi-6" value="" style="endArrow=none;html=1;rounded=0;entryX=0.02;entryY=0.674;entryDx=0;entryDy=0;entryPerimeter=0;exitX=0.995;exitY=0.532;exitDx=0;exitDy=0;exitPerimeter=0;" parent="1" source="oNc5xV1l3uZRWg-EU25s-5" target="oNc5xV1l3uZRWg-EU25s-83" edge="1">
          <mxGeometry width="50" height="50" relative="1" as="geometry">
            <mxPoint x="370" y="-700" as="sourcePoint" />
            <mxPoint x="420" y="-750" as="targetPoint" />
          </mxGeometry>
        </mxCell>
        <mxCell id="BAjjqtdPfAsm28QJEfqi-7" value="" style="endArrow=none;html=1;rounded=0;exitX=0.128;exitY=-0.003;exitDx=0;exitDy=0;exitPerimeter=0;entryX=0.676;entryY=0.976;entryDx=0;entryDy=0;entryPerimeter=0;" parent="1" source="oNc5xV1l3uZRWg-EU25s-7" target="oNc5xV1l3uZRWg-EU25s-62" edge="1">
          <mxGeometry width="50" height="50" relative="1" as="geometry">
            <mxPoint x="-40" y="-270" as="sourcePoint" />
            <mxPoint x="10" y="-320" as="targetPoint" />
          </mxGeometry>
        </mxCell>
        <mxCell id="BAjjqtdPfAsm28QJEfqi-8" value="" style="endArrow=none;html=1;rounded=0;exitX=0.789;exitY=0.006;exitDx=0;exitDy=0;exitPerimeter=0;entryX=0.676;entryY=0.976;entryDx=0;entryDy=0;entryPerimeter=0;" parent="1" source="oNc5xV1l3uZRWg-EU25s-7" edge="1">
          <mxGeometry width="50" height="50" relative="1" as="geometry">
            <mxPoint x="104" y="-289" as="sourcePoint" />
            <mxPoint x="90" y="-320" as="targetPoint" />
          </mxGeometry>
        </mxCell>
        <mxCell id="BAjjqtdPfAsm28QJEfqi-9" value="" style="endArrow=none;html=1;rounded=0;entryX=0.205;entryY=0.907;entryDx=0;entryDy=0;entryPerimeter=0;exitX=1.003;exitY=0.11;exitDx=0;exitDy=0;exitPerimeter=0;" parent="1" source="oNc5xV1l3uZRWg-EU25s-7" target="oNc5xV1l3uZRWg-EU25s-63" edge="1">
          <mxGeometry width="50" height="50" relative="1" as="geometry">
            <mxPoint x="110" y="-270" as="sourcePoint" />
            <mxPoint x="160" y="-320" as="targetPoint" />
          </mxGeometry>
        </mxCell>
        <mxCell id="BAjjqtdPfAsm28QJEfqi-10" value="" style="endArrow=none;html=1;rounded=0;exitX=0.8;exitY=-0.003;exitDx=0;exitDy=0;exitPerimeter=0;" parent="1" source="oNc5xV1l3uZRWg-EU25s-11" edge="1">
          <mxGeometry width="50" height="50" relative="1" as="geometry">
            <mxPoint x="-150" y="-740" as="sourcePoint" />
            <mxPoint x="-100" y="-790" as="targetPoint" />
          </mxGeometry>
        </mxCell>
        <mxCell id="BAjjqtdPfAsm28QJEfqi-12" value="" style="endArrow=none;html=1;rounded=0;exitX=0.25;exitY=0;exitDx=0;exitDy=0;entryX=0.673;entryY=0.97;entryDx=0;entryDy=0;entryPerimeter=0;" parent="1" source="oNc5xV1l3uZRWg-EU25s-11" target="oNc5xV1l3uZRWg-EU25s-90" edge="1">
          <mxGeometry width="50" height="50" relative="1" as="geometry">
            <mxPoint x="-250" y="-730" as="sourcePoint" />
            <mxPoint x="-200" y="-780" as="targetPoint" />
          </mxGeometry>
        </mxCell>
        <mxCell id="BAjjqtdPfAsm28QJEfqi-13" value="" style="endArrow=none;html=1;rounded=0;exitX=0.75;exitY=0;exitDx=0;exitDy=0;" parent="1" source="oNc5xV1l3uZRWg-EU25s-2" edge="1">
          <mxGeometry width="50" height="50" relative="1" as="geometry">
            <mxPoint x="90" y="-740" as="sourcePoint" />
            <mxPoint x="140" y="-790" as="targetPoint" />
          </mxGeometry>
        </mxCell>
        <mxCell id="BAjjqtdPfAsm28QJEfqi-14" value="" style="endArrow=none;html=1;rounded=0;exitX=0.317;exitY=-0.006;exitDx=0;exitDy=0;exitPerimeter=0;entryX=0.808;entryY=0.906;entryDx=0;entryDy=0;entryPerimeter=0;" parent="1" source="oNc5xV1l3uZRWg-EU25s-2" target="oNc5xV1l3uZRWg-EU25s-92" edge="1">
          <mxGeometry width="50" height="50" relative="1" as="geometry">
            <mxPoint x="10" y="-750" as="sourcePoint" />
            <mxPoint x="60" y="-800" as="targetPoint" />
          </mxGeometry>
        </mxCell>
        <mxCell id="BAjjqtdPfAsm28QJEfqi-15" value="" style="endArrow=none;html=1;rounded=0;entryX=0.787;entryY=0.917;entryDx=0;entryDy=0;entryPerimeter=0;exitX=0.148;exitY=-0.002;exitDx=0;exitDy=0;exitPerimeter=0;" parent="1" source="oNc5xV1l3uZRWg-EU25s-1" target="oNc5xV1l3uZRWg-EU25s-89" edge="1">
          <mxGeometry width="50" height="50" relative="1" as="geometry">
            <mxPoint x="-480" y="-770" as="sourcePoint" />
            <mxPoint x="-430" y="-820" as="targetPoint" />
          </mxGeometry>
        </mxCell>
        <mxCell id="BAjjqtdPfAsm28QJEfqi-16" value="" style="endArrow=none;html=1;rounded=0;exitX=0.999;exitY=0.575;exitDx=0;exitDy=0;exitPerimeter=0;" parent="1" source="oNc5xV1l3uZRWg-EU25s-88" edge="1">
          <mxGeometry width="50" height="50" relative="1" as="geometry">
            <mxPoint x="-520" y="-670" as="sourcePoint" />
            <mxPoint x="-470" y="-720" as="targetPoint" />
          </mxGeometry>
        </mxCell>
        <mxCell id="BAjjqtdPfAsm28QJEfqi-17" value="" style="endArrow=none;html=1;rounded=0;exitX=0.8;exitY=0.102;exitDx=0;exitDy=0;exitPerimeter=0;" parent="1" source="oNc5xV1l3uZRWg-EU25s-87" edge="1">
          <mxGeometry width="50" height="50" relative="1" as="geometry">
            <mxPoint x="-520" y="-650" as="sourcePoint" />
            <mxPoint x="-470" y="-700" as="targetPoint" />
          </mxGeometry>
        </mxCell>
        <mxCell id="BAjjqtdPfAsm28QJEfqi-18" value="" style="endArrow=none;html=1;rounded=0;" parent="1" source="oNc5xV1l3uZRWg-EU25s-9" edge="1">
          <mxGeometry width="50" height="50" relative="1" as="geometry">
            <mxPoint x="60" y="-960" as="sourcePoint" />
            <mxPoint x="110" y="-1010" as="targetPoint" />
          </mxGeometry>
        </mxCell>
        <mxCell id="BAjjqtdPfAsm28QJEfqi-19" value="" style="endArrow=none;html=1;rounded=0;exitX=0.204;exitY=0.005;exitDx=0;exitDy=0;exitPerimeter=0;" parent="1" source="oNc5xV1l3uZRWg-EU25s-9" edge="1">
          <mxGeometry width="50" height="50" relative="1" as="geometry">
            <mxPoint x="38.679999999999836" y="-969.3999999999999" as="sourcePoint" />
            <mxPoint x="-1" y="-1000" as="targetPoint" />
          </mxGeometry>
        </mxCell>
        <mxCell id="BAjjqtdPfAsm28QJEfqi-20" value="" style="endArrow=none;html=1;rounded=0;entryX=0.899;entryY=0.813;entryDx=0;entryDy=0;entryPerimeter=0;exitX=0;exitY=0.167;exitDx=0;exitDy=0;exitPerimeter=0;" parent="1" source="oNc5xV1l3uZRWg-EU25s-4" target="oNc5xV1l3uZRWg-EU25s-95" edge="1">
          <mxGeometry width="50" height="50" relative="1" as="geometry">
            <mxPoint x="170" y="-540" as="sourcePoint" />
            <mxPoint x="220" y="-590" as="targetPoint" />
          </mxGeometry>
        </mxCell>
        <mxCell id="BAjjqtdPfAsm28QJEfqi-21" value="" style="endArrow=none;html=1;rounded=0;exitX=1;exitY=0.25;exitDx=0;exitDy=0;" parent="1" source="oNc5xV1l3uZRWg-EU25s-4" edge="1">
          <mxGeometry width="50" height="50" relative="1" as="geometry">
            <mxPoint x="400" y="-560" as="sourcePoint" />
            <mxPoint x="450" y="-610" as="targetPoint" />
          </mxGeometry>
        </mxCell>
        <mxCell id="BAjjqtdPfAsm28QJEfqi-22" value="" style="endArrow=none;html=1;rounded=0;exitX=-0.001;exitY=0.3;exitDx=0;exitDy=0;exitPerimeter=0;entryX=0.878;entryY=0.835;entryDx=0;entryDy=0;entryPerimeter=0;" parent="1" source="oNc5xV1l3uZRWg-EU25s-3" target="oNc5xV1l3uZRWg-EU25s-96" edge="1">
          <mxGeometry width="50" height="50" relative="1" as="geometry">
            <mxPoint x="160" y="-390" as="sourcePoint" />
            <mxPoint x="210" y="-440" as="targetPoint" />
          </mxGeometry>
        </mxCell>
        <mxCell id="BAjjqtdPfAsm28QJEfqi-23" value="" style="endArrow=none;html=1;rounded=0;exitX=1;exitY=0.195;exitDx=0;exitDy=0;exitPerimeter=0;" parent="1" source="oNc5xV1l3uZRWg-EU25s-3" edge="1">
          <mxGeometry width="50" height="50" relative="1" as="geometry">
            <mxPoint x="360" y="-410" as="sourcePoint" />
            <mxPoint x="410" y="-460" as="targetPoint" />
          </mxGeometry>
        </mxCell>
        <mxCell id="BAjjqtdPfAsm28QJEfqi-24" value="" style="endArrow=none;html=1;rounded=0;exitX=1.002;exitY=0.777;exitDx=0;exitDy=0;exitPerimeter=0;entryX=-0.003;entryY=0.479;entryDx=0;entryDy=0;entryPerimeter=0;" parent="1" source="oNc5xV1l3uZRWg-EU25s-3" target="oNc5xV1l3uZRWg-EU25s-98" edge="1">
          <mxGeometry width="50" height="50" relative="1" as="geometry">
            <mxPoint x="360" y="-340" as="sourcePoint" />
            <mxPoint x="410" y="-390" as="targetPoint" />
          </mxGeometry>
        </mxCell>
        <mxCell id="BAjjqtdPfAsm28QJEfqi-25" value="" style="endArrow=none;html=1;rounded=0;entryX=0.018;entryY=0.609;entryDx=0;entryDy=0;entryPerimeter=0;exitX=0.999;exitY=0.438;exitDx=0;exitDy=0;exitPerimeter=0;" parent="1" source="oNc5xV1l3uZRWg-EU25s-6" target="oNc5xV1l3uZRWg-EU25s-85" edge="1">
          <mxGeometry width="50" height="50" relative="1" as="geometry">
            <mxPoint x="360" y="-220" as="sourcePoint" />
            <mxPoint x="410" y="-270" as="targetPoint" />
          </mxGeometry>
        </mxCell>
        <mxCell id="BAjjqtdPfAsm28QJEfqi-26" value="" style="endArrow=none;html=1;rounded=0;exitX=0.112;exitY=0.176;exitDx=0;exitDy=0;exitPerimeter=0;" parent="1" source="oNc5xV1l3uZRWg-EU25s-86" edge="1">
          <mxGeometry width="50" height="50" relative="1" as="geometry">
            <mxPoint x="310" y="-180" as="sourcePoint" />
            <mxPoint x="360" y="-230" as="targetPoint" />
          </mxGeometry>
        </mxCell>
        <mxCell id="BAjjqtdPfAsm28QJEfqi-27" value="" style="endArrow=none;html=1;rounded=0;exitX=0.1;exitY=0.193;exitDx=0;exitDy=0;exitPerimeter=0;" parent="1" source="oNc5xV1l3uZRWg-EU25s-64" edge="1">
          <mxGeometry width="50" height="50" relative="1" as="geometry">
            <mxPoint x="70" y="-180" as="sourcePoint" />
            <mxPoint x="120" y="-230" as="targetPoint" />
          </mxGeometry>
        </mxCell>
        <mxCell id="BAjjqtdPfAsm28QJEfqi-28" value="" style="endArrow=none;html=1;rounded=0;exitX=0.569;exitY=0.01;exitDx=0;exitDy=0;exitPerimeter=0;" parent="1" source="oNc5xV1l3uZRWg-EU25s-66" edge="1">
          <mxGeometry width="50" height="50" relative="1" as="geometry">
            <mxPoint x="-10" y="-20" as="sourcePoint" />
            <mxPoint x="40" y="-70" as="targetPoint" />
          </mxGeometry>
        </mxCell>
        <mxCell id="BAjjqtdPfAsm28QJEfqi-29" value="" style="endArrow=none;html=1;rounded=0;exitX=0.352;exitY=0.024;exitDx=0;exitDy=0;exitPerimeter=0;" parent="1" source="oNc5xV1l3uZRWg-EU25s-67" edge="1">
          <mxGeometry width="50" height="50" relative="1" as="geometry">
            <mxPoint x="50" y="-20" as="sourcePoint" />
            <mxPoint x="100" y="-70" as="targetPoint" />
          </mxGeometry>
        </mxCell>
        <mxCell id="BAjjqtdPfAsm28QJEfqi-30" value="" style="endArrow=none;html=1;rounded=0;exitX=0.25;exitY=0;exitDx=0;exitDy=0;" parent="1" source="oNc5xV1l3uZRWg-EU25s-12" edge="1">
          <mxGeometry width="50" height="50" relative="1" as="geometry">
            <mxPoint x="-264" y="-280" as="sourcePoint" />
            <mxPoint x="-214" y="-330" as="targetPoint" />
          </mxGeometry>
        </mxCell>
        <mxCell id="BAjjqtdPfAsm28QJEfqi-31" value="" style="endArrow=none;html=1;rounded=0;entryX=0.001;entryY=0.173;entryDx=0;entryDy=0;entryPerimeter=0;exitX=0.93;exitY=0.762;exitDx=0;exitDy=0;exitPerimeter=0;" parent="1" source="oNc5xV1l3uZRWg-EU25s-74" target="oNc5xV1l3uZRWg-EU25s-12" edge="1">
          <mxGeometry width="50" height="50" relative="1" as="geometry">
            <mxPoint x="-300" y="-260" as="sourcePoint" />
            <mxPoint x="-250" y="-310" as="targetPoint" />
          </mxGeometry>
        </mxCell>
        <mxCell id="BAjjqtdPfAsm28QJEfqi-32" value="" style="endArrow=none;html=1;rounded=0;entryX=0.004;entryY=0.479;entryDx=0;entryDy=0;entryPerimeter=0;exitX=1.001;exitY=0.464;exitDx=0;exitDy=0;exitPerimeter=0;" parent="1" source="oNc5xV1l3uZRWg-EU25s-75" target="oNc5xV1l3uZRWg-EU25s-12" edge="1">
          <mxGeometry width="50" height="50" relative="1" as="geometry">
            <mxPoint x="-320" y="-230" as="sourcePoint" />
            <mxPoint x="-270" y="-280" as="targetPoint" />
          </mxGeometry>
        </mxCell>
        <mxCell id="BAjjqtdPfAsm28QJEfqi-33" value="" style="endArrow=none;html=1;rounded=0;exitX=0.8;exitY=0.094;exitDx=0;exitDy=0;exitPerimeter=0;" parent="1" source="oNc5xV1l3uZRWg-EU25s-76" edge="1">
          <mxGeometry width="50" height="50" relative="1" as="geometry">
            <mxPoint x="-280" y="-190" as="sourcePoint" />
            <mxPoint x="-230" y="-240" as="targetPoint" />
          </mxGeometry>
        </mxCell>
        <mxCell id="BAjjqtdPfAsm28QJEfqi-34" value="" style="endArrow=none;html=1;rounded=0;exitX=1;exitY=0.5;exitDx=0;exitDy=0;entryX=0;entryY=0.25;entryDx=0;entryDy=0;" parent="1" source="oNc5xV1l3uZRWg-EU25s-70" target="oNc5xV1l3uZRWg-EU25s-13" edge="1">
          <mxGeometry width="50" height="50" relative="1" as="geometry">
            <mxPoint x="-300" y="-80" as="sourcePoint" />
            <mxPoint x="-250" y="-130" as="targetPoint" />
          </mxGeometry>
        </mxCell>
        <mxCell id="BAjjqtdPfAsm28QJEfqi-35" value="" style="endArrow=none;html=1;rounded=0;exitX=0.984;exitY=0.325;exitDx=0;exitDy=0;exitPerimeter=0;" parent="1" source="oNc5xV1l3uZRWg-EU25s-71" edge="1">
          <mxGeometry width="50" height="50" relative="1" as="geometry">
            <mxPoint x="-300" y="-50" as="sourcePoint" />
            <mxPoint x="-250" y="-100" as="targetPoint" />
          </mxGeometry>
        </mxCell>
        <mxCell id="BAjjqtdPfAsm28QJEfqi-36" value="" style="endArrow=none;html=1;rounded=0;exitX=0.688;exitY=0.036;exitDx=0;exitDy=0;exitPerimeter=0;" parent="1" source="oNc5xV1l3uZRWg-EU25s-72" edge="1">
          <mxGeometry width="50" height="50" relative="1" as="geometry">
            <mxPoint x="-300" y="-30" as="sourcePoint" />
            <mxPoint x="-250" y="-80" as="targetPoint" />
          </mxGeometry>
        </mxCell>
        <mxCell id="BAjjqtdPfAsm28QJEfqi-37" value="" style="endArrow=none;html=1;rounded=0;exitX=0.719;exitY=0.06;exitDx=0;exitDy=0;exitPerimeter=0;" parent="1" source="oNc5xV1l3uZRWg-EU25s-68" edge="1">
          <mxGeometry width="50" height="50" relative="1" as="geometry">
            <mxPoint x="-250" y="130" as="sourcePoint" />
            <mxPoint x="-200" y="80" as="targetPoint" />
          </mxGeometry>
        </mxCell>
        <mxCell id="BAjjqtdPfAsm28QJEfqi-38" value="" style="endArrow=none;html=1;rounded=0;entryX=0.75;entryY=1;entryDx=0;entryDy=0;exitX=0.364;exitY=0.013;exitDx=0;exitDy=0;exitPerimeter=0;" parent="1" source="oNc5xV1l3uZRWg-EU25s-69" target="oNc5xV1l3uZRWg-EU25s-14" edge="1">
          <mxGeometry width="50" height="50" relative="1" as="geometry">
            <mxPoint x="-140" y="130" as="sourcePoint" />
            <mxPoint x="-90" y="80" as="targetPoint" />
          </mxGeometry>
        </mxCell>
        <mxCell id="BAjjqtdPfAsm28QJEfqi-39" value="M" style="text;html=1;align=center;verticalAlign=middle;resizable=0;points=[];autosize=1;strokeColor=none;fillColor=none;" parent="1" vertex="1">
          <mxGeometry x="-350" y="-750" width="30" height="30" as="geometry" />
        </mxCell>
        <mxCell id="BAjjqtdPfAsm28QJEfqi-40" value="1" style="text;html=1;align=center;verticalAlign=middle;resizable=0;points=[];autosize=1;strokeColor=none;fillColor=none;" parent="1" vertex="1">
          <mxGeometry x="-230" y="-750" width="30" height="30" as="geometry" />
        </mxCell>
        <mxCell id="BAjjqtdPfAsm28QJEfqi-41" value="1" style="text;html=1;align=center;verticalAlign=middle;resizable=0;points=[];autosize=1;strokeColor=none;fillColor=none;" parent="1" vertex="1">
          <mxGeometry x="-80" y="-750" width="30" height="30" as="geometry" />
        </mxCell>
        <mxCell id="BAjjqtdPfAsm28QJEfqi-42" value="M" style="text;html=1;align=center;verticalAlign=middle;resizable=0;points=[];autosize=1;strokeColor=none;fillColor=none;" parent="1" vertex="1">
          <mxGeometry x="14" y="-750" width="30" height="30" as="geometry" />
        </mxCell>
        <mxCell id="BAjjqtdPfAsm28QJEfqi-43" value="1" style="text;html=1;align=center;verticalAlign=middle;resizable=0;points=[];autosize=1;strokeColor=none;fillColor=none;" parent="1" vertex="1">
          <mxGeometry x="164" y="-750" width="30" height="30" as="geometry" />
        </mxCell>
        <mxCell id="BAjjqtdPfAsm28QJEfqi-44" value="M" style="text;html=1;align=center;verticalAlign=middle;resizable=0;points=[];autosize=1;strokeColor=none;fillColor=none;" parent="1" vertex="1">
          <mxGeometry x="240" y="-750" width="30" height="30" as="geometry" />
        </mxCell>
        <mxCell id="BAjjqtdPfAsm28QJEfqi-45" value="1" style="text;html=1;align=center;verticalAlign=middle;resizable=0;points=[];autosize=1;strokeColor=none;fillColor=none;" parent="1" vertex="1">
          <mxGeometry x="330" y="-910" width="30" height="30" as="geometry" />
        </mxCell>
        <mxCell id="BAjjqtdPfAsm28QJEfqi-46" value="1" style="text;html=1;align=center;verticalAlign=middle;resizable=0;points=[];autosize=1;strokeColor=none;fillColor=none;" parent="1" vertex="1">
          <mxGeometry x="330" y="-785" width="30" height="30" as="geometry" />
        </mxCell>
        <mxCell id="BAjjqtdPfAsm28QJEfqi-47" value="1" style="text;html=1;align=center;verticalAlign=middle;resizable=0;points=[];autosize=1;strokeColor=none;fillColor=none;" parent="1" vertex="1">
          <mxGeometry x="137" y="-966" width="30" height="30" as="geometry" />
        </mxCell>
        <mxCell id="BAjjqtdPfAsm28QJEfqi-48" value="M" style="text;html=1;align=center;verticalAlign=middle;resizable=0;points=[];autosize=1;strokeColor=none;fillColor=none;" parent="1" vertex="1">
          <mxGeometry x="227" y="-966" width="30" height="30" as="geometry" />
        </mxCell>
        <mxCell id="ezAFccZJdjFHhqXY1mgv-1" value="M" style="text;html=1;align=center;verticalAlign=middle;resizable=0;points=[];autosize=1;strokeColor=none;fillColor=none;" parent="1" vertex="1">
          <mxGeometry x="330" y="-695" width="30" height="30" as="geometry" />
        </mxCell>
        <mxCell id="ezAFccZJdjFHhqXY1mgv-2" value="1" style="text;html=1;align=center;verticalAlign=middle;resizable=0;points=[];autosize=1;strokeColor=none;fillColor=none;" parent="1" vertex="1">
          <mxGeometry x="330" y="-630" width="30" height="30" as="geometry" />
        </mxCell>
        <mxCell id="a-5Sc0Z1r-bTs-MC6T5O-1" value="1" style="text;html=1;align=center;verticalAlign=middle;resizable=0;points=[];autosize=1;strokeColor=none;fillColor=none;" parent="1" vertex="1">
          <mxGeometry x="310" y="-540" width="30" height="30" as="geometry" />
        </mxCell>
        <mxCell id="a-5Sc0Z1r-bTs-MC6T5O-2" value="M" style="text;html=1;align=center;verticalAlign=middle;resizable=0;points=[];autosize=1;strokeColor=none;fillColor=none;" parent="1" vertex="1">
          <mxGeometry x="315" y="-470" width="30" height="30" as="geometry" />
        </mxCell>
        <mxCell id="a-5Sc0Z1r-bTs-MC6T5O-3" value="1" style="text;html=1;align=center;verticalAlign=middle;resizable=0;points=[];autosize=1;strokeColor=none;fillColor=none;" parent="1" vertex="1">
          <mxGeometry x="325" y="-380" width="30" height="30" as="geometry" />
        </mxCell>
        <mxCell id="a-5Sc0Z1r-bTs-MC6T5O-4" value="M" style="text;html=1;align=center;verticalAlign=middle;resizable=0;points=[];autosize=1;strokeColor=none;fillColor=none;" parent="1" vertex="1">
          <mxGeometry x="326" y="-320" width="30" height="30" as="geometry" />
        </mxCell>
        <mxCell id="a-5Sc0Z1r-bTs-MC6T5O-5" value="M" style="text;html=1;align=center;verticalAlign=middle;resizable=0;points=[];autosize=1;strokeColor=none;fillColor=none;" parent="1" vertex="1">
          <mxGeometry x="220" y="-285" width="30" height="30" as="geometry" />
        </mxCell>
        <mxCell id="a-5Sc0Z1r-bTs-MC6T5O-6" value="1" style="text;html=1;align=center;verticalAlign=middle;resizable=0;points=[];autosize=1;strokeColor=none;fillColor=none;" parent="1" vertex="1">
          <mxGeometry x="130" y="-284" width="30" height="30" as="geometry" />
        </mxCell>
        <mxCell id="a-5Sc0Z1r-bTs-MC6T5O-7" value="1" style="text;html=1;align=center;verticalAlign=middle;resizable=0;points=[];autosize=1;strokeColor=none;fillColor=none;" parent="1" vertex="1">
          <mxGeometry x="71" y="-230" width="30" height="30" as="geometry" />
        </mxCell>
        <mxCell id="a-5Sc0Z1r-bTs-MC6T5O-8" value="1" style="text;html=1;align=center;verticalAlign=middle;resizable=0;points=[];autosize=1;strokeColor=none;fillColor=none;" parent="1" vertex="1">
          <mxGeometry x="71" y="-160" width="30" height="30" as="geometry" />
        </mxCell>
        <mxCell id="a-5Sc0Z1r-bTs-MC6T5O-9" value="1" style="text;html=1;align=center;verticalAlign=middle;resizable=0;points=[];autosize=1;strokeColor=none;fillColor=none;" parent="1" vertex="1">
          <mxGeometry x="-182" y="-10" width="30" height="30" as="geometry" />
        </mxCell>
        <mxCell id="a-5Sc0Z1r-bTs-MC6T5O-10" value="M" style="text;html=1;align=center;verticalAlign=middle;resizable=0;points=[];autosize=1;strokeColor=none;fillColor=none;" parent="1" vertex="1">
          <mxGeometry x="-182" y="-70" width="30" height="30" as="geometry" />
        </mxCell>
        <mxCell id="a-5Sc0Z1r-bTs-MC6T5O-11" value="M" style="text;html=1;align=center;verticalAlign=middle;resizable=0;points=[];autosize=1;strokeColor=none;fillColor=none;" parent="1" vertex="1">
          <mxGeometry x="-170" y="-230" width="30" height="30" as="geometry" />
        </mxCell>
        <mxCell id="a-5Sc0Z1r-bTs-MC6T5O-12" value="1" style="text;html=1;align=center;verticalAlign=middle;resizable=0;points=[];autosize=1;strokeColor=none;fillColor=none;" parent="1" vertex="1">
          <mxGeometry x="-170" y="-160" width="30" height="30" as="geometry" />
        </mxCell>
        <mxCell id="a-5Sc0Z1r-bTs-MC6T5O-13" value="1" style="text;html=1;align=center;verticalAlign=middle;resizable=0;points=[];autosize=1;strokeColor=none;fillColor=none;" parent="1" vertex="1">
          <mxGeometry x="-20" y="-290" width="30" height="30" as="geometry" />
        </mxCell>
        <mxCell id="a-5Sc0Z1r-bTs-MC6T5O-14" value="M" style="text;html=1;align=center;verticalAlign=middle;resizable=0;points=[];autosize=1;strokeColor=none;fillColor=none;" parent="1" vertex="1">
          <mxGeometry x="-110" y="-290" width="30" height="30" as="geometry" />
        </mxCell>
        <mxCell id="kOmoTzP_qZxN9r9RjJWL-1" value="Queue_Number" style="ellipse;whiteSpace=wrap;html=1;" vertex="1" parent="1">
          <mxGeometry x="-453" y="-650" width="93" height="50" as="geometry" />
        </mxCell>
        <mxCell id="kOmoTzP_qZxN9r9RjJWL-2" value="" style="endArrow=none;html=1;rounded=0;exitX=0.569;exitY=-0.008;exitDx=0;exitDy=0;exitPerimeter=0;" edge="1" parent="1" source="kOmoTzP_qZxN9r9RjJWL-1">
          <mxGeometry width="50" height="50" relative="1" as="geometry">
            <mxPoint x="-471" y="-645" as="sourcePoint" />
            <mxPoint x="-420" y="-690" as="targetPoint" />
          </mxGeometry>
        </mxCell>
      </root>
    </mxGraphModel>
  </diagram>
</mxfile>
